<svg version="1.1" xmlns="http://www.w3.org/2000/svg" viewBox="0 0 1602.25 863" width="1602.25" height="863">
  <!-- svg-source:excalidraw -->
  
  <defs>
    <style>
      @font-face {
        font-family: "Virgil";
        src: url("https://excalidraw.com/Virgil.woff2");
      }
      @font-face {
        font-family: "Cascadia";
        src: url("https://excalidraw.com/Cascadia.woff2");
      }
    </style>
  </defs>
  <rect x="0" y="0" width="1602.25" height="863" fill="#ffffff"></rect><g stroke-linecap="round" transform="translate(1230.25 73) rotate(0 40 40)"><path d="M0.73 0.25 C28 -2.75, 59.52 0.47, 83.95 -2.61 M1.51 1.17 C17.69 -2.53, 34.12 -2.43, 79.35 -1.16 M77.19 -0.43 C78.52 17.74, 79.48 45.39, 82.56 78.16 M79.13 -1.35 C80.42 18.26, 81.07 33.28, 78.39 79.88 M77.15 80.14 C54.17 83, 25.84 76.83, 3.96 83.24 M78.92 80.32 C56.05 80.94, 32.9 82.21, 0.32 78.63 M-0.11 79.09 C-0.78 61.97, 2.17 50.8, -1.3 -2.69 M1.24 78.15 C2.32 62.67, 0.39 41.11, -0.15 -1.19" stroke="#000000" stroke-width="1" fill="none"></path></g><g transform="translate(1248.75 100.5) rotate(0 22.5 12.5)"><text x="22.5" y="18" font-family="Virgil, Segoe UI Emoji" font-size="20px" fill="#000000" text-anchor="middle" style="white-space: pre;" direction="ltr">Open</text></g><g stroke-linecap="round" transform="translate(1230.25 173) rotate(0 40 40)"><path d="M1.5 -0.93 C25.59 3.27, 50.95 0.7, 79.55 1.29 M1.4 1.13 C31.28 -0.87, 59 0.08, 79.03 0.04 M79.49 -3.35 C83.29 18.11, 79.17 47.32, 80.45 81.69 M81.24 -1.77 C80.08 28.92, 80.15 59.55, 81.33 78.56 M79.15 77.57 C57.11 79.16, 31.62 80.49, 3.52 81.26 M78.75 81.62 C62.02 79.74, 45.75 82.18, -0.63 80.94 M-3.91 83.78 C-2.78 63.68, 0.47 46.23, -2.19 0.74 M-1.32 80.47 C1.14 60.92, 2.58 41.7, -0.27 -1.05" stroke="#000000" stroke-width="1" fill="none"></path></g><g transform="translate(1259.75 200.5) rotate(0 11 12.5)"><text x="11" y="18" font-family="Virgil, Segoe UI Emoji" font-size="20px" fill="#000000" text-anchor="middle" style="white-space: pre;" direction="ltr">T1</text></g><g stroke-linecap="round" transform="translate(1230.25 273) rotate(0 40 40)"><path d="M2.79 -1.03 C27.21 -0.29, 55.29 3.08, 78.02 -0.09 M-0.91 -0.67 C29.66 -2.13, 59.28 -1.68, 80.86 -0.23 M76.2 -1.52 C82.16 23.43, 80.35 49.3, 78.06 79.08 M78.28 0.93 C76.84 30.29, 77.14 57.88, 79.17 79.94 M79.21 79.3 C58.23 83.9, 36.65 76.71, -0.64 81.45 M79.16 79.07 C62.62 78.32, 42.98 77.09, 0.77 78.21 M0.23 81.09 C-2.17 61.62, -0.77 44.83, -3.54 1.37 M-0.68 81.16 C-1.88 61, -1.43 40.87, -0.87 1.2" stroke="#000000" stroke-width="1" fill="none"></path></g><g transform="translate(1252.75 300.5) rotate(0 15 12.5)"><text x="15" y="18" font-family="Virgil, Segoe UI Emoji" font-size="20px" fill="#000000" text-anchor="middle" style="white-space: pre;" direction="ltr">T2</text></g><g stroke-linecap="round" transform="translate(1230.25 573) rotate(0 40 40)"><path d="M-0.45 1.29 C32.5 -2.07, 59.07 2.72, 82.25 2.89 M-0.97 0.04 C19.85 0.82, 40.52 -0.29, 78.33 1.3 M80.45 1.69 C82.72 14.46, 78.48 35.27, 76.46 81.72 M81.33 -1.44 C80.7 16.29, 80.68 33.81, 78.79 80.47 M83.52 81.26 C53.92 79.58, 36.62 77.71, 3.24 77.37 M79.37 80.94 C57.5 82.05, 36.95 79.32, 1.89 78.92 M-2.19 80.74 C-3.24 52, 0.93 28.44, 0.93 -0.54 M-0.27 78.95 C-2.6 57.86, 0.27 36.28, -0.89 0.9" stroke="#000000" stroke-width="1" fill="none"></path></g><g transform="translate(1254.75 600.5) rotate(0 14 12.5)"><text x="14" y="18" font-family="Virgil, Segoe UI Emoji" font-size="20px" fill="#000000" text-anchor="middle" style="white-space: pre;" direction="ltr">T5</text></g><g stroke-linecap="round" transform="translate(1230.25 373) rotate(0 40 40)"><path d="M-1.98 -0.09 C25.91 1.09, 49.1 -2.98, 78.65 0.09 M0.86 -0.23 C19.85 -1.26, 41.51 -1.48, 79.24 1.75 M78.06 -0.92 C83.15 21.35, 82.39 46.34, 81.86 76.52 M79.17 -0.06 C78.42 28.1, 79.32 58.23, 79.65 80.27 M79.36 81.45 C46.45 81.77, 15.29 76.85, -1.86 83.19 M80.77 78.21 C56.57 80.4, 35.97 78.63, 0.55 79.67 M-3.54 81.37 C-2.93 61.32, -0.84 39.41, 2.33 -3.01 M-0.87 81.2 C-0.34 56.19, 1.75 34.68, -0.75 0.82" stroke="#000000" stroke-width="1" fill="none"></path></g><g transform="translate(1252.75 400.5) rotate(0 15 12.5)"><text x="15" y="18" font-family="Virgil, Segoe UI Emoji" font-size="20px" fill="#000000" text-anchor="middle" style="white-space: pre;" direction="ltr">T3</text></g><g stroke-linecap="round" transform="translate(1230.25 773) rotate(0 40 40)"><path d="M-1.35 0.09 C26.56 0.81, 55.97 2.44, 79.54 -0.51 M-0.76 1.75 C17.53 2.36, 36.27 0.55, 79.54 1.24 M81.86 -3.48 C83.34 14.02, 80.61 32.17, 79.88 79.15 M79.65 0.27 C82.14 19.78, 78.54 37.97, 80.73 78.75 M78.14 83.19 C48.26 81.21, 15.32 80.87, -3.57 76.09 M80.55 79.67 C47.34 80.46, 15.47 78.32, 0.69 78.68 M2.33 76.99 C-0.32 52.03, -3.12 26.53, 2.4 -2.38 M-0.75 80.82 C-0.27 61.05, -1.03 38.36, -1.49 1.24" stroke="#000000" stroke-width="1" fill="none"></path></g><g transform="translate(1254.25 800.5) rotate(0 14.5 12.5)"><text x="14.5" y="18" font-family="Virgil, Segoe UI Emoji" font-size="20px" fill="#000000" text-anchor="middle" style="white-space: pre;" direction="ltr">T6</text></g><g stroke-linecap="round" transform="translate(1230.25 473) rotate(0 40 40)"><path d="M0.09 -1.04 C23.02 0.32, 42.11 -2.57, 82.61 -3.8 M0.84 1.66 C20 -0.64, 43.18 -1.95, 80.86 -1.72 M77.11 -0.08 C76.96 27.6, 77.76 53, 80.95 79.21 M80.63 -1.83 C79.9 23.32, 78.96 46.8, 78.69 79.16 M81.88 76.28 C61.26 75.92, 35.54 83.28, -2.16 80.23 M80.37 78.6 C52.05 79.81, 26.32 79.59, -0.27 79.32 M-2.11 76.66 C-0.54 53.75, -1.17 20.91, 1.81 1.04 M1.47 79.69 C-1.45 57.5, 0.59 38.64, -1.58 1.88" stroke="#000000" stroke-width="1" fill="none"></path></g><g transform="translate(1253.75 500.5) rotate(0 14.5 12.5)"><text x="14.5" y="18" font-family="Virgil, Segoe UI Emoji" font-size="20px" fill="#000000" text-anchor="middle" style="white-space: pre;" direction="ltr">T4</text></g><g stroke-linecap="round" transform="translate(1230.25 673) rotate(0 40 40)"><path d="M-0.46 -0.51 C20.83 1.92, 44.54 -2.2, 83.5 0.45 M-0.46 1.24 C25.6 1.63, 53.03 1.7, 78.26 1.33 M79.88 -0.85 C77.54 19.17, 79.17 35.74, 80.54 83.52 M80.73 -1.25 C80.15 25.21, 77.69 52.12, 81.6 79.37 M76.43 76.09 C56.02 78.45, 24.71 81.71, -0.66 77.81 M80.69 78.68 C54.99 78.32, 28.36 79.75, -1.51 79.73 M2.4 77.62 C-0.45 62.03, 2.38 38.94, 1.64 0.91 M-1.49 81.24 C0.9 48.53, 2.13 20.66, 1.75 0.99" stroke="#000000" stroke-width="1" fill="none"></path></g><g transform="translate(1238.75 700.5) rotate(0 32.5 12.5)"><text x="32.5" y="18" font-family="Virgil, Segoe UI Emoji" font-size="20px" fill="#000000" text-anchor="middle" style="white-space: pre;" direction="ltr">CLOSE</text></g><g transform="translate(1192.25 10) rotate(0 76 12.5)"><text x="0" y="18" font-family="Virgil, Segoe UI Emoji" font-size="20px" fill="#000000" text-anchor="start" style="white-space: pre;" direction="ltr">Transaction log</text></g><g stroke-linecap="round" transform="translate(1412.25 67) rotate(0 40 40)"><path d="M2.06 3.59 C19.23 0.39, 28.77 -3.22, 79.36 -0.69 M-0.56 0.62 C17.33 -0.32, 33.64 0.03, 78.49 -1.51 M78.52 2.54 C76.86 31.23, 82.57 60.58, 80.27 76.47 M78.07 0.81 C82.18 26.77, 80.31 52.05, 80.62 79.86 M83.25 80.21 C47.78 81.08, 14.08 81.13, 3.9 80.14 M80.8 79.9 C61.32 78.79, 40.42 80.96, -0.72 81.43 M-1.4 78.68 C-2.4 60.95, -3.6 38.94, 2.76 -1.59 M1.85 81.18 C0.86 59.99, -0.65 35.82, 0.11 1.44" stroke="#000000" stroke-width="1" fill="none"></path></g><g transform="translate(1440.75 94.5) rotate(0 11 12.5)"><text x="11" y="18" font-family="Virgil, Segoe UI Emoji" font-size="20px" fill="#000000" text-anchor="middle" style="white-space: pre;" direction="ltr">T1</text></g><g stroke-linecap="round" transform="translate(1512.25 67) rotate(0 40 40)"><path d="M3.12 0.56 C21.44 -4.48, 49.1 -2.13, 76.88 1.44 M-0.43 0.68 C27.12 0.53, 56.48 -2.01, 81.63 -1.03 M77.68 0.69 C82.8 20.8, 79.68 39.04, 81.18 82.45 M81.2 0.42 C77.78 21.09, 79.08 43.35, 81.91 79.25 M79.4 81.21 C53.97 81.34, 37.17 80.23, -1.91 81.17 M81.5 79.32 C59.42 81.41, 36.57 81.35, -0.64 81.12 M-1.5 82.39 C-2.14 64.75, 3.32 44.27, -1.39 -0.69 M0.59 81.22 C-2.4 53.75, -1.37 32.39, -0.75 0.69" stroke="#000000" stroke-width="1" fill="none"></path></g><g transform="translate(1536.25 94.5) rotate(0 15 12.5)"><text x="15" y="18" font-family="Virgil, Segoe UI Emoji" font-size="20px" fill="#000000" text-anchor="middle" style="white-space: pre;" direction="ltr">T2</text></g><g transform="translate(1425.25 10) rotate(0 61.5 12.5)"><text x="0" y="18" font-family="Virgil, Segoe UI Emoji" font-size="20px" fill="#000000" text-anchor="start" style="white-space: pre;" direction="ltr">Committed</text></g><g stroke-linecap="round" transform="translate(1412.25 170) rotate(0 40 40)"><path d="M0.37 -0.02 C30.39 -0.87, 64.27 -0.51, 76.19 1.72 M-1.97 1.29 C18.3 -2.4, 32.74 -2.84, 80.76 1.96 M79.85 -0.55 C77.52 20.2, 81.5 30.68, 82.85 80.78 M78.94 1.2 C80.4 19.13, 81.25 35.5, 81.71 78.7 M77.17 78.53 C53.76 82.05, 27.61 79.08, 2.85 83.74 M78.92 78.67 C56.72 81.02, 36.04 79.59, 0.71 78.46 M-1.92 78.97 C0.37 58.82, 4.61 39.32, 0.75 3.73 M-0.19 79.32 C1.48 59.65, 1.13 33.99, -0.27 0.11" stroke="#000000" stroke-width="1" fill="none"></path></g><g transform="translate(1432.75 197.5) rotate(0 19.5 12.5)"><text x="19.5" y="18" font-family="Virgil, Segoe UI Emoji" font-size="20px" fill="#000000" text-anchor="middle" style="white-space: pre;" direction="ltr">T3?</text></g><g stroke-linecap="round"><g stroke-opacity="0.8" fill-opacity="0.8" transform="translate(172.24999999999991 70.93694385077654) rotate(0 90.86287473633887 -0.7122226999312602)"><path d="M1.15 1.41 C30.52 1.68, 148.54 1.34, 178.05 1.34 M-1.67 -0.29 C28.43 -0.83, 152.44 -2.43, 183.4 -2.94" stroke="#000000" stroke-width="1" fill="none"></path></g><g stroke-opacity="0.8" fill-opacity="0.8" transform="translate(172.24999999999991 70.93694385077654) rotate(0 90.86287473633887 -0.7122226999312602)"><path d="M2.66 -15.67 C2.56 -10.04, 2.65 -2.31, 3.83 2.5 M0.13 -12.52 C0.62 -8.44, 1.53 -6.05, 1.86 1.89" stroke="#000000" stroke-width="1" fill="none"></path></g><g stroke-opacity="0.8" fill-opacity="0.8" transform="translate(172.24999999999991 70.93694385077654) rotate(0 90.86287473633887 -0.7122226999312602)"><path d="M2.67 14.33 C2.62 9.02, 2.7 5.81, 3.83 2.5 M0.13 17.48 C0.68 13.15, 1.59 7.12, 1.86 1.89" stroke="#000000" stroke-width="1" fill="none"></path></g><g stroke-opacity="0.8" fill-opacity="0.8" transform="translate(172.24999999999991 70.93694385077654) rotate(0 90.86287473633887 -0.7122226999312602)"><path d="M185.13 9.97 C185 4.67, 185.01 1.46, 186.08 -1.86 M182.6 13.12 C183.08 8.79, 183.93 2.76, 184.11 -2.46" stroke="#000000" stroke-width="1" fill="none"></path></g><g stroke-opacity="0.8" fill-opacity="0.8" transform="translate(172.24999999999991 70.93694385077654) rotate(0 90.86287473633887 -0.7122226999312602)"><path d="M184.69 -20.03 C184.67 -14.4, 184.83 -6.67, 186.08 -1.86 M182.16 -16.88 C182.71 -12.79, 183.68 -10.41, 184.11 -2.46" stroke="#000000" stroke-width="1" fill="none"></path></g></g><g stroke-linecap="round"><g stroke-opacity="0.8" fill-opacity="0.8" transform="translate(432.2499999999999 69.03271340908705) rotate(0 190.22750527575613 1.1920077417582249)"><path d="M-0.02 2.79 C63.37 3.7, 315.26 3.19, 378.4 2.66 M-3.48 1.84 C61.02 2.29, 320.62 -1.01, 383.94 -0.91" stroke="#000000" stroke-width="1" fill="none"></path></g><g stroke-opacity="0.8" fill-opacity="0.8" transform="translate(432.2499999999999 69.03271340908705) rotate(0 190.22750527575613 1.1920077417582249)"><path d="M2.99 -13.92 C2.54 -10.01, -0.76 -3.66, -1.66 5.23 M0.53 -12.09 C0.82 -7.1, 1 -2.02, 1.14 3.17" stroke="#000000" stroke-width="1" fill="none"></path></g><g stroke-opacity="0.8" fill-opacity="0.8" transform="translate(432.2499999999999 69.03271340908705) rotate(0 190.22750527575613 1.1920077417582249)"><path d="M2.95 16.08 C3.11 13.12, -0.18 12.6, -1.66 5.23 M0.5 17.91 C1.14 13.85, 1.33 9.89, 1.14 3.17" stroke="#000000" stroke-width="1" fill="none"></path></g><g stroke-opacity="0.8" fill-opacity="0.8" transform="translate(432.2499999999999 69.03271340908705) rotate(0 190.22750527575613 1.1920077417582249)"><path d="M387.03 12.38 C387.16 9.41, 383.84 8.9, 382.3 1.53 M384.57 14.21 C385.18 10.15, 385.33 6.19, 385.11 -0.53" stroke="#000000" stroke-width="1" fill="none"></path></g><g stroke-opacity="0.8" fill-opacity="0.8" transform="translate(432.2499999999999 69.03271340908705) rotate(0 190.22750527575613 1.1920077417582249)"><path d="M386.84 -17.62 C386.41 -13.71, 383.14 -7.36, 382.3 1.53 M384.38 -15.79 C384.7 -10.8, 384.92 -5.72, 385.11 -0.53" stroke="#000000" stroke-width="1" fill="none"></path></g></g><g stroke-linecap="round"><g stroke-opacity="0.8" fill-opacity="0.8" transform="translate(872.2499999999999 69.46866608858107) rotate(0 59.59242989249526 1.0217220179736657)"><path d="M2.54 0.38 C22.21 0.19, 99.38 -0.11, 118.72 0.38 M0.47 -1.88 C19.59 -1.74, 96.54 3.73, 115.78 3.92" stroke="#000000" stroke-width="1" fill="none"></path></g><g stroke-opacity="0.8" fill-opacity="0.8" transform="translate(872.2499999999999 69.46866608858107) rotate(0 59.59242989249526 1.0217220179736657)"><path d="M2.9 -15.99 C2.51 -11.31, 5.67 -4, 0.05 -0.93 M3.07 -15.23 C4.04 -12.05, 1.64 -8.38, 1.7 0.13" stroke="#000000" stroke-width="1" fill="none"></path></g><g stroke-opacity="0.8" fill-opacity="0.8" transform="translate(872.2499999999999 69.46866608858107) rotate(0 59.59242989249526 1.0217220179736657)"><path d="M2.99 14.01 C2.24 8.93, 5.37 6.5, 0.05 -0.93 M3.16 14.77 C3.72 10.52, 1.3 6.76, 1.7 0.13" stroke="#000000" stroke-width="1" fill="none"></path></g><g stroke-opacity="0.8" fill-opacity="0.8" transform="translate(872.2499999999999 69.46866608858107) rotate(0 59.59242989249526 1.0217220179736657)"><path d="M115.53 17.53 C115 12.45, 118.36 10.02, 113.29 2.62 M115.7 18.29 C116.43 14.05, 114.19 10.29, 114.94 3.67" stroke="#000000" stroke-width="1" fill="none"></path></g><g stroke-opacity="0.8" fill-opacity="0.8" transform="translate(872.2499999999999 69.46866608858107) rotate(0 59.59242989249526 1.0217220179736657)"><path d="M116.85 -12.44 C116.22 -7.75, 119.16 -0.44, 113.29 2.62 M117.02 -11.68 C117.82 -8.49, 115.24 -4.83, 114.94 3.67" stroke="#000000" stroke-width="1" fill="none"></path></g></g><g stroke-linecap="round"><g stroke-opacity="0.8" fill-opacity="0.8" transform="translate(72.24999999999991 150) rotate(0 102.27223431780934 -1.0231187812596545)"><path d="M2.52 1.87 C35.72 2.17, 165.52 1.35, 198.51 0.67 M0.45 0.42 C34.64 -0.08, 171.03 -3.85, 204.1 -3.98" stroke="#000000" stroke-width="1" fill="none"></path></g><g stroke-opacity="0.8" fill-opacity="0.8" transform="translate(72.24999999999991 150) rotate(0 102.27223431780934 -1.0231187812596545)"><path d="M4.47 -14.73 C3.08 -8.53, 0.01 -3.23, 3.95 -0.14 M2.34 -13.26 C4.07 -6.44, 1.63 -2.4, 1.05 2.79" stroke="#000000" stroke-width="1" fill="none"></path></g><g stroke-opacity="0.8" fill-opacity="0.8" transform="translate(72.24999999999991 150) rotate(0 102.27223431780934 -1.0231187812596545)"><path d="M4.59 15.27 C3.4 13.22, 0.3 10.26, 3.95 -0.14 M2.46 16.74 C3.81 12.46, 1.32 5.42, 1.05 2.79" stroke="#000000" stroke-width="1" fill="none"></path></g><g stroke-opacity="0.8" fill-opacity="0.8" transform="translate(72.24999999999991 150) rotate(0 102.27223431780934 -1.0231187812596545)"><path d="M206.37 9.42 C205.12 7.37, 201.96 4.41, 205.53 -5.99 M204.24 10.89 C205.51 6.61, 202.95 -0.43, 202.62 -3.06" stroke="#000000" stroke-width="1" fill="none"></path></g><g stroke-opacity="0.8" fill-opacity="0.8" transform="translate(72.24999999999991 150) rotate(0 102.27223431780934 -1.0231187812596545)"><path d="M205.84 -20.57 C204.51 -14.38, 201.49 -9.08, 205.53 -5.99 M203.72 -19.1 C205.52 -12.29, 203.15 -8.24, 202.62 -3.06" stroke="#000000" stroke-width="1" fill="none"></path></g></g><g stroke-linecap="round"><g stroke-opacity="0.8" fill-opacity="0.8" transform="translate(73.58679683685294 230) rotate(0 159.93871813967826 1.4708160928171878)"><path d="M1.66 -1.37 C54.03 -1.18, 263.44 -0.33, 315.88 -0.37 M-0.89 4.06 C52.14 4.84, 266.99 3.62, 320.77 3.07" stroke="#000000" stroke-width="1" fill="none"></path></g><g stroke-opacity="0.8" fill-opacity="0.8" transform="translate(73.58679683685294 230) rotate(0 159.93871813967826 1.4708160928171878)"><path d="M0.24 -19.35 C1.14 -13.55, -0.15 -5.8, 2.9 -0.89 M3.14 -14.88 C2.96 -12.48, 2.98 -6.52, 3.03 -0.6" stroke="#000000" stroke-width="1" fill="none"></path></g><g stroke-opacity="0.8" fill-opacity="0.8" transform="translate(73.58679683685294 230) rotate(0 159.93871813967826 1.4708160928171878)"><path d="M0.14 10.65 C1.39 5.67, 0.14 2.64, 2.9 -0.89 M3.03 15.12 C2.44 8.67, 2.49 5.77, 3.03 -0.6" stroke="#000000" stroke-width="1" fill="none"></path></g><g stroke-opacity="0.8" fill-opacity="0.8" transform="translate(73.58679683685294 230) rotate(0 159.93871813967826 1.4708160928171878)"><path d="M319.41 15.08 C320.61 10.11, 319.3 7.08, 322.01 3.54 M322.31 19.55 C321.66 13.1, 321.67 10.2, 322.14 3.83" stroke="#000000" stroke-width="1" fill="none"></path></g><g stroke-opacity="0.8" fill-opacity="0.8" transform="translate(73.58679683685294 230) rotate(0 159.93871813967826 1.4708160928171878)"><path d="M319.19 -14.92 C320.14 -9.12, 318.91 -1.37, 322.01 3.54 M322.09 -10.45 C321.95 -8.04, 322.03 -2.09, 322.14 3.83" stroke="#000000" stroke-width="1" fill="none"></path></g></g><g stroke-linecap="round"><g stroke-opacity="0.8" fill-opacity="0.8" transform="translate(74.06494989648452 310) rotate(0 278.22586404852575 -0.6041108210593507)"><path d="M-1.37 -2.79 C91.85 -3.46, 464.82 -2.83, 557.82 -2.4 M3.08 1.87 C96.04 1.31, 463.57 -0.23, 555.38 -0.08" stroke="#000000" stroke-width="1" fill="none"></path></g><g stroke-opacity="0.8" fill-opacity="0.8" transform="translate(74.06494989648452 310) rotate(0 278.22586404852575 -0.6041108210593507)"><path d="M-4.35 -18.18 C-3.76 -15.76, -1.4 -9.17, -0.89 -2.93 M0.12 -16.74 C-1.9 -11.09, -0.38 -5.19, -0.6 -2.01" stroke="#000000" stroke-width="1" fill="none"></path></g><g stroke-opacity="0.8" fill-opacity="0.8" transform="translate(74.06494989648452 310) rotate(0 278.22586404852575 -0.6041108210593507)"><path d="M-4.35 11.82 C-4.12 6.87, -1.76 6.08, -0.89 -2.93 M0.12 13.26 C-1.9 7.68, -0.38 2.36, -0.6 -2.01" stroke="#000000" stroke-width="1" fill="none"></path></g><g stroke-opacity="0.8" fill-opacity="0.8" transform="translate(74.06494989648452 310) rotate(0 278.22586404852575 -0.6041108210593507)"><path d="M552.43 14.53 C552.65 9.58, 555.01 8.79, 555.86 -0.22 M556.9 15.97 C554.87 10.39, 556.38 5.07, 556.15 0.7" stroke="#000000" stroke-width="1" fill="none"></path></g><g stroke-opacity="0.8" fill-opacity="0.8" transform="translate(74.06494989648452 310) rotate(0 278.22586404852575 -0.6041108210593507)"><path d="M552.37 -15.47 C552.97 -13.05, 555.34 -6.46, 555.86 -0.22 M556.85 -14.03 C554.83 -8.38, 556.37 -2.48, 556.15 0.7" stroke="#000000" stroke-width="1" fill="none"></path></g></g><g stroke-linecap="round"><g stroke-opacity="0.8" fill-opacity="0.8" transform="translate(75.48233050957313 470) rotate(0 428.3398405605555 -0.8965521235763845)"><path d="M-2.79 -0.37 C139.33 -0.4, 711.14 -1.8, 854.37 -1.55 M0.9 -3.03 C143.72 -2.6, 717.17 1.36, 859.47 1.24" stroke="#000000" stroke-width="1" fill="none"></path></g><g stroke-opacity="0.8" fill-opacity="0.8" transform="translate(75.48233050957313 470) rotate(0 428.3398405605555 -0.8965521235763845)"><path d="M-3.2 -17.94 C-4.61 -10.19, -1.7 -4.11, -2.93 1.86 M-1.77 -15.9 C-1.44 -9.88, -1.14 -5.61, -2.01 -1.6" stroke="#000000" stroke-width="1" fill="none"></path></g><g stroke-opacity="0.8" fill-opacity="0.8" transform="translate(75.48233050957313 470) rotate(0 428.3398405605555 -0.8965521235763845)"><path d="M-3.15 12.06 C-4.28 9.04, -1.39 4.34, -2.93 1.86 M-1.72 14.1 C-1.97 11.13, -1.69 6.42, -2.01 -1.6" stroke="#000000" stroke-width="1" fill="none"></path></g><g stroke-opacity="0.8" fill-opacity="0.8" transform="translate(75.48233050957313 470) rotate(0 428.3398405605555 -0.8965521235763845)"><path d="M859.02 13.67 C857.92 10.64, 860.84 5.94, 859.32 3.46 M860.45 15.7 C860.22 12.74, 860.53 8.02, 860.24 0" stroke="#000000" stroke-width="1" fill="none"></path></g><g stroke-opacity="0.8" fill-opacity="0.8" transform="translate(75.48233050957313 470) rotate(0 428.3398405605555 -0.8965521235763845)"><path d="M859.13 -16.33 C857.69 -8.59, 860.58 -2.51, 859.32 3.46 M860.56 -14.3 C860.87 -8.28, 861.14 -4.01, 860.24 0" stroke="#000000" stroke-width="1" fill="none"></path></g></g><g stroke-linecap="round"><g stroke-opacity="0.8" fill-opacity="0.8" transform="translate(76.70464717149726 390) rotate(0 387.77434730842714 0.4615909259766511)"><path d="M-0.37 -2.4 C128.86 -1.97, 644.48 -0.67, 774 -0.2 M-4.01 2.47 C126.27 3.62, 649.63 3.1, 779.56 3.32" stroke="#000000" stroke-width="1" fill="none"></path></g><g stroke-opacity="0.8" fill-opacity="0.8" transform="translate(76.70464717149726 390) rotate(0 387.77434730842714 0.4615909259766511)"><path d="M-2.9 -19.06 C-0.84 -12.39, -0.17 -10.01, 1.86 -2.41 M-0.86 -16.32 C0.95 -10.1, 0.71 -4.76, -1.6 -1.8" stroke="#000000" stroke-width="1" fill="none"></path></g><g stroke-opacity="0.8" fill-opacity="0.8" transform="translate(76.70464717149726 390) rotate(0 387.77434730842714 0.4615909259766511)"><path d="M-2.98 10.94 C-0.31 10.07, 0.39 4.92, 1.86 -2.41 M-0.94 13.68 C0.3 8.04, 0.1 1.51, -1.6 -1.8" stroke="#000000" stroke-width="1" fill="none"></path></g><g stroke-opacity="0.8" fill-opacity="0.8" transform="translate(76.70464717149726 390) rotate(0 387.77434730842714 0.4615909259766511)"><path d="M776.98 16.66 C779.64 15.8, 780.33 10.64, 781.78 3.31 M779.02 19.41 C780.25 13.76, 780.03 7.24, 778.32 3.93" stroke="#000000" stroke-width="1" fill="none"></path></g><g stroke-opacity="0.8" fill-opacity="0.8" transform="translate(76.70464717149726 390) rotate(0 387.77434730842714 0.4615909259766511)"><path d="M776.99 -13.34 C779.05 -6.67, 779.74 -4.29, 781.78 3.31 M779.03 -10.59 C780.85 -4.37, 780.62 0.97, 778.32 3.93" stroke="#000000" stroke-width="1" fill="none"></path></g></g><g stroke-linecap="round"><g stroke-opacity="0.8" fill-opacity="0.8" transform="translate(72.24999999999991 550) rotate(0 500.3551460994035 0.5192752421587556)"><path d="M1.74 -1.66 C168.44 -1.91, 835.17 -2.75, 1001.46 -2.53 M-0.75 3.6 C165.59 3.71, 833.66 -0.11, 1000.02 -0.27" stroke="#000000" stroke-width="1" fill="none"></path></g><g stroke-opacity="0.8" fill-opacity="0.8" transform="translate(72.24999999999991 550) rotate(0 500.3551460994035 0.5192752421587556)"><path d="M-0.06 -15.09 C-1.09 -12.04, 1.27 -4.72, 0.1 -3.75 M2.05 -16.34 C3.1 -13.57, 0.97 -7.61, 0.89 -2.65" stroke="#000000" stroke-width="1" fill="none"></path></g><g stroke-opacity="0.8" fill-opacity="0.8" transform="translate(72.24999999999991 550) rotate(0 500.3551460994035 0.5192752421587556)"><path d="M-0.02 14.91 C-0.84 7.6, 1.5 4.56, 0.1 -3.75 M2.09 13.66 C3.33 8.13, 1.19 5.8, 0.89 -2.65" stroke="#000000" stroke-width="1" fill="none"></path></g><g stroke-opacity="0.8" fill-opacity="0.8" transform="translate(72.24999999999991 550) rotate(0 500.3551460994035 0.5192752421587556)"><path d="M998.29 16.3 C997.46 8.99, 999.79 5.95, 998.38 -2.36 M1000.4 15.05 C1001.63 9.52, 999.48 7.19, 999.16 -1.26" stroke="#000000" stroke-width="1" fill="none"></path></g><g stroke-opacity="0.8" fill-opacity="0.8" transform="translate(72.24999999999991 550) rotate(0 500.3551460994035 0.5192752421587556)"><path d="M998.18 -13.7 C997.16 -10.65, 999.53 -3.33, 998.38 -2.36 M1000.29 -14.95 C1001.35 -12.18, 999.23 -6.22, 999.16 -1.26" stroke="#000000" stroke-width="1" fill="none"></path></g></g><g stroke-opacity="0.8" fill-opacity="0.8" transform="translate(206.25000000000003 11.000000000000028) rotate(0 22.5 12.5)"><text x="0" y="18" font-family="Virgil, Segoe UI Emoji" font-size="20px" fill="#000000" text-anchor="start" style="white-space: pre;" direction="ltr">OPEN</text></g><g stroke-opacity="0.8" fill-opacity="0.8" transform="translate(892.2499999999999 10) rotate(0 25.5 12.5)"><text x="0" y="18" font-family="Virgil, Segoe UI Emoji" font-size="20px" fill="#000000" text-anchor="start" style="white-space: pre;" direction="ltr">Close</text></g><g stroke-opacity="0.8" fill-opacity="0.8" transform="translate(572.2499999999999 10) rotate(0 57.5 12.5)"><text x="0" y="18" font-family="Virgil, Segoe UI Emoji" font-size="20px" fill="#000000" text-anchor="start" style="white-space: pre;" direction="ltr">Query table</text></g><g stroke-opacity="0.8" fill-opacity="0.8" transform="translate(10 139.75000000000003) rotate(0 11 12.5)"><text x="0" y="18" font-family="Virgil, Segoe UI Emoji" font-size="20px" fill="#000000" text-anchor="start" style="white-space: pre;" direction="ltr">T1</text></g><g stroke-opacity="0.8" fill-opacity="0.8" transform="translate(10 209.99999999999997) rotate(0 15 12.5)"><text x="0" y="18" font-family="Virgil, Segoe UI Emoji" font-size="20px" fill="#000000" text-anchor="start" style="white-space: pre;" direction="ltr">T2</text></g><g stroke-opacity="0.8" fill-opacity="0.8" transform="translate(10 290) rotate(0 15 12.5)"><text x="0" y="18" font-family="Virgil, Segoe UI Emoji" font-size="20px" fill="#000000" text-anchor="start" style="white-space: pre;" direction="ltr">T3</text></g><g stroke-opacity="0.8" fill-opacity="0.8" transform="translate(10 371) rotate(0 14.5 12.5)"><text x="0" y="18" font-family="Virgil, Segoe UI Emoji" font-size="20px" fill="#000000" text-anchor="start" style="white-space: pre;" direction="ltr">T4</text></g><g stroke-opacity="0.8" fill-opacity="0.8" transform="translate(10 446) rotate(0 14 12.5)"><text x="0" y="18" font-family="Virgil, Segoe UI Emoji" font-size="20px" fill="#000000" text-anchor="start" style="white-space: pre;" direction="ltr">T5</text></g><g stroke-opacity="0.8" fill-opacity="0.8" transform="translate(10 527.25) rotate(0 14.5 12.5)"><text x="0" y="18" font-family="Virgil, Segoe UI Emoji" font-size="20px" fill="#000000" text-anchor="start" style="white-space: pre;" direction="ltr">T6</text></g></svg>
