<svg version="1.1" xmlns="http://www.w3.org/2000/svg" viewBox="0 0 840 1063" width="840" height="1063">
  <!-- svg-source:excalidraw -->
  
  <defs>
    <style>
      @font-face {
        font-family: "Virgil";
        src: url("https://excalidraw.com/Virgil.woff2");
      }
      @font-face {
        font-family: "Cascadia";
        src: url("https://excalidraw.com/Cascadia.woff2");
      }
    </style>
  </defs>
  <rect x="0" y="0" width="840" height="1063" fill="#ffffff"></rect><g stroke-linecap="round" transform="translate(290 73) rotate(0 40 40)"><path d="M0.73 0.25 C28 -2.75, 59.52 0.47, 83.95 -2.61 M1.51 1.17 C17.69 -2.53, 34.12 -2.43, 79.35 -1.16 M77.19 -0.43 C78.52 17.74, 79.48 45.39, 82.56 78.16 M79.13 -1.35 C80.42 18.26, 81.07 33.28, 78.39 79.88 M77.15 80.14 C54.17 83, 25.84 76.83, 3.96 83.24 M78.92 80.32 C56.05 80.94, 32.9 82.21, 0.32 78.63 M-0.11 79.09 C-0.78 61.97, 2.17 50.8, -1.3 -2.69 M1.24 78.15 C2.32 62.67, 0.39 41.11, -0.15 -1.19" stroke="#000000" stroke-width="1" fill="none"></path></g><g transform="translate(310.5 100.5) rotate(0 19.5 12.5)"><text x="19.5" y="18" font-family="Virgil, Segoe UI Emoji" font-size="20px" fill="#000000" text-anchor="middle" style="white-space: pre;" direction="ltr">k1: I</text></g><g stroke-linecap="round" transform="translate(290 173) rotate(0 40 40)"><path d="M1.5 -0.93 C25.59 3.27, 50.95 0.7, 79.55 1.29 M1.4 1.13 C31.28 -0.87, 59 0.08, 79.03 0.04 M79.49 -3.35 C83.29 18.11, 79.17 47.32, 80.45 81.69 M81.24 -1.77 C80.08 28.92, 80.15 59.55, 81.33 78.56 M79.15 77.57 C57.11 79.16, 31.62 80.49, 3.52 81.26 M78.75 81.62 C62.02 79.74, 45.75 82.18, -0.63 80.94 M-3.91 83.78 C-2.78 63.68, 0.47 46.23, -2.19 0.74 M-1.32 80.47 C1.14 60.92, 2.58 41.7, -0.27 -1.05" stroke="#000000" stroke-width="1" fill="none"></path></g><g transform="translate(304 200.5) rotate(0 26 12.5)"><text x="26" y="18" font-family="Virgil, Segoe UI Emoji" font-size="20px" fill="#000000" text-anchor="middle" style="white-space: pre;" direction="ltr">k2: U</text></g><g stroke-linecap="round" transform="translate(290 273) rotate(0 40 40)"><path d="M2.79 -1.03 C27.21 -0.29, 55.29 3.08, 78.02 -0.09 M-0.91 -0.67 C29.66 -2.13, 59.28 -1.68, 80.86 -0.23 M76.2 -1.52 C82.16 23.43, 80.35 49.3, 78.06 79.08 M78.28 0.93 C76.84 30.29, 77.14 57.88, 79.17 79.94 M79.21 79.3 C58.23 83.9, 36.65 76.71, -0.64 81.45 M79.16 79.07 C62.62 78.32, 42.98 77.09, 0.77 78.21 M0.23 81.09 C-2.17 61.62, -0.77 44.83, -3.54 1.37 M-0.68 81.16 C-1.88 61, -1.43 40.87, -0.87 1.2" stroke="#000000" stroke-width="1" fill="none"></path></g><g transform="translate(300.5 300.5) rotate(0 29.5 12.5)"><text x="29.5" y="18" font-family="Virgil, Segoe UI Emoji" font-size="20px" fill="#000000" text-anchor="middle" style="white-space: pre;" direction="ltr">k3: D</text></g><g stroke-linecap="round" transform="translate(290 573) rotate(0 40 40)"><path d="M-0.45 1.29 C32.5 -2.07, 59.07 2.72, 82.25 2.89 M-0.97 0.04 C19.85 0.82, 40.52 -0.29, 78.33 1.3 M80.45 1.69 C82.72 14.46, 78.48 35.27, 76.46 81.72 M81.33 -1.44 C80.7 16.29, 80.68 33.81, 78.79 80.47 M83.52 81.26 C53.92 79.58, 36.62 77.71, 3.24 77.37 M79.37 80.94 C57.5 82.05, 36.95 79.32, 1.89 78.92 M-2.19 80.74 C-3.24 52, 0.93 28.44, 0.93 -0.54 M-0.27 78.95 C-2.6 57.86, 0.27 36.28, -0.89 0.9" stroke="#000000" stroke-width="1" fill="none"></path></g><g transform="translate(303.5 600.5) rotate(0 26.5 12.5)"><text x="26.5" y="18" font-family="Virgil, Segoe UI Emoji" font-size="20px" fill="#000000" text-anchor="middle" style="white-space: pre;" direction="ltr">K5: I</text></g><g stroke-linecap="round" transform="translate(290 373) rotate(0 40 40)"><path d="M-1.98 -0.09 C25.91 1.09, 49.1 -2.98, 78.65 0.09 M0.86 -0.23 C19.85 -1.26, 41.51 -1.48, 79.24 1.75 M78.06 -0.92 C83.15 21.35, 82.39 46.34, 81.86 76.52 M79.17 -0.06 C78.42 28.1, 79.32 58.23, 79.65 80.27 M79.36 81.45 C46.45 81.77, 15.29 76.85, -1.86 83.19 M80.77 78.21 C56.57 80.4, 35.97 78.63, 0.55 79.67 M-3.54 81.37 C-2.93 61.32, -0.84 39.41, 2.33 -3.01 M-0.87 81.2 C-0.34 56.19, 1.75 34.68, -0.75 0.82" stroke="#000000" stroke-width="1" fill="none"></path></g><g transform="translate(300.5 388) rotate(0 29.5 25)"><text x="29.5" y="18" font-family="Virgil, Segoe UI Emoji" font-size="20px" fill="#000000" text-anchor="middle" style="white-space: pre;" direction="ltr">WIND</text><text x="29.5" y="43" font-family="Virgil, Segoe UI Emoji" font-size="20px" fill="#000000" text-anchor="middle" style="white-space: pre;" direction="ltr">OPEN</text></g><g stroke-linecap="round" transform="translate(470 533) rotate(0 40 40)"><path d="M2.25 2.89 C18.22 -2.47, 40.16 -3.07, 80.09 -1.04 M-1.67 1.3 C25.52 -0.56, 56.59 0.43, 80.84 1.66 M76.46 1.72 C76.19 21.98, 76.16 42.9, 77.11 79.92 M78.79 0.47 C79.56 20.35, 80.22 43.16, 80.63 78.17 M83.24 77.37 C55.6 77.14, 37.76 77.73, 1.88 76.28 M81.89 78.92 C53.03 78.98, 25.5 77.34, 0.37 78.6 M0.93 79.46 C-1.91 65.4, -3.56 45.6, -2.11 -3.34 M-0.89 80.9 C-0.44 58.74, -0.14 39.44, 1.47 -0.31" stroke="#000000" stroke-width="1" fill="none"></path></g><g transform="translate(489 560.5) rotate(0 21 12.5)"><text x="21" y="18" font-family="Virgil, Segoe UI Emoji" font-size="20px" fill="#000000" text-anchor="middle" style="white-space: pre;" direction="ltr">k1: R</text></g><g stroke-linecap="round" transform="translate(290 773) rotate(0 40 40)"><path d="M-1.35 0.09 C26.56 0.81, 55.97 2.44, 79.54 -0.51 M-0.76 1.75 C17.53 2.36, 36.27 0.55, 79.54 1.24 M81.86 -3.48 C83.34 14.02, 80.61 32.17, 79.88 79.15 M79.65 0.27 C82.14 19.78, 78.54 37.97, 80.73 78.75 M78.14 83.19 C48.26 81.21, 15.32 80.87, -3.57 76.09 M80.55 79.67 C47.34 80.46, 15.47 78.32, 0.69 78.68 M2.33 76.99 C-0.32 52.03, -3.12 26.53, 2.4 -2.38 M-0.75 80.82 C-0.27 61.05, -1.03 38.36, -1.49 1.24" stroke="#000000" stroke-width="1" fill="none"></path></g><g transform="translate(296 788) rotate(0 34 25)"><text x="34" y="18" font-family="Virgil, Segoe UI Emoji" font-size="20px" fill="#000000" text-anchor="middle" style="white-space: pre;" direction="ltr">WIND</text><text x="34" y="43" font-family="Virgil, Segoe UI Emoji" font-size="20px" fill="#000000" text-anchor="middle" style="white-space: pre;" direction="ltr">CLOSE</text></g><g stroke-linecap="round" transform="translate(290 473) rotate(0 40 40)"><path d="M0.09 -1.04 C23.02 0.32, 42.11 -2.57, 82.61 -3.8 M0.84 1.66 C20 -0.64, 43.18 -1.95, 80.86 -1.72 M77.11 -0.08 C76.96 27.6, 77.76 53, 80.95 79.21 M80.63 -1.83 C79.9 23.32, 78.96 46.8, 78.69 79.16 M81.88 76.28 C61.26 75.92, 35.54 83.28, -2.16 80.23 M80.37 78.6 C52.05 79.81, 26.32 79.59, -0.27 79.32 M-2.11 76.66 C-0.54 53.75, -1.17 20.91, 1.81 1.04 M1.47 79.69 C-1.45 57.5, 0.59 38.64, -1.58 1.88" stroke="#000000" stroke-width="1" fill="none"></path></g><g transform="translate(300 500.5) rotate(0 30 12.5)"><text x="30" y="18" font-family="Virgil, Segoe UI Emoji" font-size="20px" fill="#000000" text-anchor="middle" style="white-space: pre;" direction="ltr">K4: D</text></g><g stroke-linecap="round" transform="translate(290 673) rotate(0 40 40)"><path d="M-0.46 -0.51 C20.83 1.92, 44.54 -2.2, 83.5 0.45 M-0.46 1.24 C25.6 1.63, 53.03 1.7, 78.26 1.33 M79.88 -0.85 C77.54 19.17, 79.17 35.74, 80.54 83.52 M80.73 -1.25 C80.15 25.21, 77.69 52.12, 81.6 79.37 M76.43 76.09 C56.02 78.45, 24.71 81.71, -0.66 77.81 M80.69 78.68 C54.99 78.32, 28.36 79.75, -1.51 79.73 M2.4 77.62 C-0.45 62.03, 2.38 38.94, 1.64 0.91 M-1.49 81.24 C0.9 48.53, 2.13 20.66, 1.75 0.99" stroke="#000000" stroke-width="1" fill="none"></path></g><g transform="translate(305.5 700.5) rotate(0 24.5 12.5)"><text x="24.5" y="18" font-family="Virgil, Segoe UI Emoji" font-size="20px" fill="#000000" text-anchor="middle" style="white-space: pre;" direction="ltr">K6: I</text></g><g stroke-linecap="round" transform="translate(570 533) rotate(0 40 40)"><path d="M2.61 -3.8 C21.56 4.84, 46.6 3.03, 83.32 -1.94 M0.86 -1.72 C23.09 -0.32, 45.65 -0.03, 79.96 -0.83 M80.95 -0.79 C78.96 24.3, 83.18 48.79, 76.33 79.36 M78.69 -0.84 C78.07 28.5, 78.36 54.75, 78.14 80.77 M77.84 80.23 C64.23 80.86, 44.09 82.25, -2.8 76.46 M79.73 79.32 C54.42 78.87, 26.25 79.32, -1.67 79.13 M1.81 81.04 C-0.55 52.84, 1.86 25.33, -0.62 -1.58 M-1.58 81.88 C-0.57 63.72, 0 45.42, 1.03 -0.3" stroke="#000000" stroke-width="1" fill="none"></path></g><g transform="translate(583.5 560.5) rotate(0 26.5 12.5)"><text x="26.5" y="18" font-family="Virgil, Segoe UI Emoji" font-size="20px" fill="#000000" text-anchor="middle" style="white-space: pre;" direction="ltr">k2: R</text></g><g transform="translate(252 10) rotate(0 76 12.5)"><text x="0" y="18" font-family="Virgil, Segoe UI Emoji" font-size="20px" fill="#000000" text-anchor="start" style="white-space: pre;" direction="ltr">Transaction log</text></g><g stroke-linecap="round" transform="translate(470 633) rotate(0 40 40)"><path d="M0 0 C0 0, 0 0, 0 0 M0 0 C0 0, 0 0, 0 0 M1.2 7.57 C2.3 4.92, 3.72 4.13, 4.33 -0.77 M-0.25 7.12 C1.94 4.29, 3.81 2.95, 5.37 0.47 M3.17 9.43 C3.56 7.97, 5.43 6.09, 7.7 2.37 M-1.01 13.08 C3.12 7.44, 7.65 3.37, 12.03 -0.9 M3.66 15.22 C4.59 14.18, 12.48 8.55, 14.69 -3.39 M1 17.98 C2.75 15.06, 8.7 10.35, 16.74 -1.56 M-3.59 24.79 C6.95 13.59, 10.63 11.62, 21.11 0.62 M-0.64 22.67 C9.47 14.42, 13.28 6.96, 21.28 0.38 M-3.64 31.96 C4.74 25.65, 10.55 16.77, 22.3 0.41 M-0.43 29.64 C10.48 19.42, 17.77 10.1, 25.84 1.99 M2.78 34.16 C9.89 31.14, 13.64 20.37, 33.19 0.44 M0.05 37.52 C7.94 25, 15.84 15.17, 29.94 0.79 M2.17 39.88 C14.12 30.95, 22.9 14.89, 34.48 0.12 M-1.17 41.69 C10.96 28.97, 23.78 17.15, 38.54 0.62 M-1.56 48.83 C16.86 31.13, 24.88 20.21, 45.96 1.69 M-1.49 48.59 C13.03 31.5, 28.27 17.31, 44.2 -0.34 M-2.42 52.51 C17.86 31.56, 36.92 9.2, 49.41 2.09 M-0.23 56.52 C15.58 36.29, 28.18 21.65, 48.74 0.56 M2.62 58.16 C13.39 38.33, 38.33 19.21, 53.97 0.84 M-0.91 61.73 C16.06 41.02, 35.16 20.5, 53.48 -1.58 M-1.75 65.31 C12.9 48.99, 28.5 36.49, 59.03 -0.11 M-1.73 67.2 C20.22 45.46, 42.04 20.61, 56.9 -1.07 M-2.96 69.96 C16.51 51.12, 32.89 38.35, 63.58 3.53 M1.4 72.96 C19.12 52.41, 38.53 32.08, 64.82 -1.61 M1.59 80.67 C22.32 47.91, 45.17 24.11, 69.12 2.25 M1.81 80.44 C18.96 55.74, 38.95 35.28, 68.1 1.79 M3.85 80.19 C21.08 63.19, 43.38 37.4, 72.99 -3.4 M4.26 80.18 C29.73 49.71, 53.3 23.54, 72.83 -1.15 M10.77 83.37 C34.77 52.92, 50.73 24.91, 79.27 -2.9 M7.35 82.05 C35.53 49.2, 62.83 17.44, 78.01 2.09 M9.64 85.01 C39.4 55.67, 59.04 28.51, 81.55 3.09 M11.71 81.18 C36.8 54.74, 60.03 27.67, 83.11 1.94 M20.26 81.72 C40.69 63.28, 57.35 38.93, 79.66 11.86 M16.97 84.1 C35.15 66.92, 50.06 49.85, 83.68 9.99 M25.67 78.83 C40.77 66.62, 57.51 50.43, 85.82 14.25 M23.27 81.74 C44.87 55.2, 66.29 31.7, 82.22 14.78 M27.02 86.21 C42.49 70.37, 48.54 60, 81.44 24.3 M30.98 81.55 C49.1 57.44, 69.72 37.61, 83.89 21.71 M32.27 82.95 C53.65 63.08, 67.98 50.47, 83.3 23.42 M32.25 82.26 C47.85 70.74, 58.38 52.5, 83.42 25.27 M42.39 81.47 C51.57 62.26, 69.75 47.39, 84.26 36.91 M37.93 82.23 C54.18 69.67, 62.34 54.96, 80.71 31.9 M41.5 83.63 C62.23 68.58, 73.29 46.14, 79.41 38.18 M46.55 81.76 C59.23 65.16, 72.84 52.5, 83.73 40.28 M53.57 81.35 C62.57 69.6, 76.88 56.38, 80.26 48.84 M49.91 83.89 C61.43 68.34, 74.42 55.97, 81.51 43.64 M57.31 80.53 C65.24 74.77, 72.74 60.58, 83.41 51.31 M54.68 84.46 C63.44 73.67, 67.8 68.09, 81.72 50.59 M59.55 84.86 C69.22 75.27, 82.06 66.49, 81.45 60.72 M60.65 84.19 C68.13 77.49, 72.3 70.37, 84.27 59.16 M66.09 79.77 C65.42 75.53, 73.55 74.33, 79.68 61.52 M66.39 82.71 C70.68 77.49, 73.81 74.56, 82.92 65.63 M74.61 80.51 C73.74 78.33, 76.51 78.69, 85.75 67.86 M71.49 82.6 C72.74 79.1, 76.45 76.4, 82.29 70.62 M78.19 82.59 C76.89 80.66, 79.5 79.72, 82.49 75.16 M77.28 83.09 C78.8 79.5, 79.64 77.6, 83.4 76.08" stroke="red" stroke-width="0.5" fill="none"></path><path d="M0.3 -1.91 C25.29 -0.13, 56.55 -1.65, 83.2 0.03 M-0.09 -0.32 C29.28 -2.33, 53.38 -2.16, 78.98 -0.8 M76.99 -3.62 C79.28 25.79, 82.02 60.41, 77.37 76.33 M80.32 1.53 C80.88 28.7, 79.95 55.08, 81.35 81.08 M83.43 76.89 C63.51 81.43, 41.17 83, 3.22 82.98 M80.91 80.78 C56.96 80.95, 33.31 82.79, -0.91 80.06 M-0.94 76.79 C3.11 50.6, -0.42 18.82, 3.35 -1.21 M0.49 81.36 C-0.93 57.87, 0.61 32.18, 0.4 1.77" stroke="#000000" stroke-width="1" fill="none"></path></g><g transform="translate(485 660.5) rotate(0 25 12.5)"><text x="25" y="18" font-family="Virgil, Segoe UI Emoji" font-size="20px" fill="#000000" text-anchor="middle" style="white-space: pre;" direction="ltr">k4: R</text></g><g stroke-linecap="round" transform="translate(570 633) rotate(0 40 40)"><path d="M0 0 C0 0, 0 0, 0 0 M0 0 C0 0, 0 0, 0 0 M1.23 7.94 C2.57 3.17, 2.58 2.11, 4.58 0.59 M-0.22 7.17 C0.81 4.64, 3.08 4.11, 4.23 0.4 M1.35 13.77 C3.38 10.43, 4.11 1.55, 9.12 2.41 M0.86 13.44 C3.18 7.73, 6.82 3.95, 11.6 -0.45 M-3.16 14.83 C8.11 10.07, 10.09 3.34, 12.93 1.69 M0.65 16.87 C4.07 11.61, 8.98 7.33, 16.27 1.96 M-1.26 24.24 C3.77 15.72, 7.12 13.07, 18.05 -0.6 M0.25 24.01 C6.73 15.77, 16.2 5.24, 21.58 0.22 M1.56 29.11 C13.93 20.67, 21.63 5.62, 22.95 -1.63 M-0.48 29.07 C9.48 23.27, 16.41 11.45, 25.68 0.28 M-1.62 37.62 C10.96 24.73, 20.02 10.67, 34.95 2.65 M0.93 37 C10.78 28.45, 16.06 18.03, 30.45 -1 M1.14 41.79 C16.13 28.92, 31.03 12.56, 34.4 -3.68 M1.83 41.04 C9.46 33.82, 14.99 24.55, 36.57 -1.05 M0.49 47.93 C14.55 30.48, 27.41 24.42, 41.9 1.54 M0.52 49.91 C11.74 35.72, 18.93 27.41, 42.87 1.36 M0.29 55.42 C13.69 41.44, 25.77 27.62, 50.83 0.73 M-1.08 53.48 C16.43 34.25, 34.08 18.74, 49.08 1.08 M-1.78 58.88 C18.48 38.13, 37.2 14.12, 54.55 2.66 M1.38 61.73 C18.19 38.25, 36.97 16.92, 51.19 -0.53 M-3.74 67.07 C14 47.47, 34.73 33.66, 58.98 -3.4 M1.33 66.43 C22.2 41.79, 45.16 12.67, 56.24 -0.61 M0.57 69.2 C24.94 41.96, 49.03 18.85, 61.74 2.41 M-0.59 72.3 C21.47 45.29, 46.28 20.82, 65.65 -1.91 M1.44 77.38 C11.47 65.89, 28.37 42.94, 64.78 0.73 M-0.5 78.27 C16.14 56.92, 32.76 41.28, 70.01 -1.81 M6.33 82.42 C28.22 53.68, 50.54 33.79, 77.49 -0.99 M4.07 82.04 C20.8 64.46, 37.5 43.91, 72.42 0.57 M11.31 82.03 C34.28 55.61, 56.52 23.22, 81.34 1.73 M9.68 83.17 C33.62 49.79, 64.05 18.27, 79.25 -0.62 M16.13 78.89 C43.16 53.75, 66.65 19.86, 86.38 -0.52 M12.34 81.93 C35.65 54.71, 61.15 30.41, 80.91 1.89 M22.1 80.81 C42.07 56.9, 64.08 33.79, 85.75 12.34 M17.54 82.26 C45.15 51.52, 71.97 24.2, 84.49 8.75 M20.64 85.83 C43.63 58.04, 60.09 31.37, 79.56 15.72 M22.98 81.66 C41.32 63.13, 59.69 43.6, 81.85 14.62 M25.83 80.34 C43.54 63.33, 64.09 37.92, 81.45 20.28 M27.31 84.21 C46.3 60.6, 66.77 37.67, 82.35 20.87 M32.94 85.99 C45.88 70.34, 60.69 49.17, 82.49 26.31 M34.88 84.19 C50.58 65.12, 68.91 45.03, 80.99 24.84 M38.32 82.02 C50.34 65.91, 59.57 52.83, 81.72 30.57 M39.74 83.28 C50.49 70.61, 59.49 62.12, 83.03 31.41 M47.29 83.68 C60.32 64.15, 74.23 50.65, 81.95 36.71 M43.8 81.81 C60.4 65.24, 76 49.86, 84.1 38.28 M52.61 81.05 C60.41 69.58, 66.8 64.09, 81.75 45.59 M51.46 80.34 C58.21 74.01, 63.01 67.88, 84.3 47.12 M55.13 81.25 C68.2 76.2, 70.59 62.96, 85.89 50.2 M56.44 82.7 C63.99 75.3, 71.53 64.7, 82.86 49.26 M58.9 78.47 C69.09 74.2, 81.28 64.23, 85.94 53.77 M61.06 80.83 C66.46 77.72, 70.71 70.06, 80.92 56.64 M67.78 80.15 C68.79 74.7, 75.65 74.47, 78.8 64.62 M67.07 81.83 C69.4 78.43, 73.32 73.64, 84.21 63.47 M72.45 84.66 C74.29 80.09, 80 75.93, 82.58 70.4 M71.08 81 C74.03 79.8, 76.22 76.06, 81.41 69.42 M78.03 83.92 C79.46 80.59, 81.07 77.86, 83.36 74.67 M75.84 83.11 C78.48 79.71, 80.97 78.19, 82.74 76.26" stroke="red" stroke-width="0.5" fill="none"></path><path d="M-0.48 1.63 C31.92 -2.35, 57.26 2.35, 76.85 -1.53 M1.1 0.67 C27.46 -1.18, 53.93 1.63, 78.88 -1.74 M79.1 2.11 C83.05 20.35, 81.5 45.75, 83.94 76.3 M80.85 -1.54 C78.83 30.44, 77.58 62.78, 79.38 79.34 M78.69 80.48 C51.25 84.4, 26.17 83, 3.63 76.8 M79.32 78.78 C51.16 80.52, 21.65 79.41, -1.84 78.55 M-0.52 82.13 C1.29 65.38, -1.08 50.59, 0.51 2.13 M-0.01 79.58 C2.01 61.53, 0.12 45.31, -0.5 1.44" stroke="#000000" stroke-width="1" fill="none"></path></g><g transform="translate(583.5 660.5) rotate(0 26.5 12.5)"><text x="26.5" y="18" font-family="Virgil, Segoe UI Emoji" font-size="20px" fill="#000000" text-anchor="middle" style="white-space: pre;" direction="ltr">k5: R</text></g><g transform="translate(483 476) rotate(0 68.5 12.5)"><text x="0" y="18" font-family="Virgil, Segoe UI Emoji" font-size="20px" fill="#000000" text-anchor="start" style="white-space: pre;" direction="ltr">Window buffer</text></g><g stroke-linecap="round" transform="translate(748 76) rotate(0 40 40)"><path d="M3.37 -3.07 C26.24 -1.07, 52.02 1.54, 78.62 2.62 M-0.84 -1.76 C25.69 1.57, 53.47 1, 78.22 -0.43 M76.22 2.68 C80.77 27.13, 75.88 53.41, 79.08 79.77 M80.04 -1.58 C82.76 27.93, 80.72 58.1, 81.77 79.03 M79.77 76.99 C53.67 81.81, 32.67 79.74, 3.33 78.88 M81.71 78.61 C52.47 77.62, 27.02 78.37, 0.58 81.6 M-2.61 79.19 C1.83 54.46, -4.06 29.33, 3.4 -1.2 M0.23 81.09 C0.3 57.33, 0.21 31.83, -1.08 -0.2" stroke="#000000" stroke-width="1" fill="none"></path></g><g transform="translate(768.5 103.5) rotate(0 19.5 12.5)"><text x="19.5" y="18" font-family="Virgil, Segoe UI Emoji" font-size="20px" fill="#000000" text-anchor="middle" style="white-space: pre;" direction="ltr">k1: I</text></g><g stroke-linecap="round" transform="translate(748 176) rotate(0 40 40)"><path d="M-0.6 -1.93 C18.04 1.9, 38 3.85, 81.52 2.56 M-1.35 1.1 C21.06 1.93, 41.53 0.98, 80.25 -0.4 M81.09 2.11 C74.69 28.04, 77.57 49.09, 82.03 83.5 M81.36 -0.13 C79.36 33.43, 81.8 61.91, 79.94 81.47 M77.43 82.09 C57.6 78.82, 38.15 77.68, 0.78 79.82 M78.02 78.93 C60.69 78.57, 45.71 80.49, 0.39 81.63 M3.13 80.04 C-1.71 63.56, 4.44 44.95, -0.23 -3.54 M-1.12 80.88 C-1.4 57.57, -1.27 37.09, 1.74 -1.81" stroke="#000000" stroke-width="1" fill="none"></path></g><g transform="translate(762 203.5) rotate(0 26 12.5)"><text x="26" y="18" font-family="Virgil, Segoe UI Emoji" font-size="20px" fill="#000000" text-anchor="middle" style="white-space: pre;" direction="ltr">k2: U</text></g><g stroke-linecap="round" transform="translate(748 276) rotate(0 40 40)"><path d="M-1.65 0.68 C16.49 3.4, 37.25 3.34, 78.83 -1.67 M-0.6 0.53 C15.2 -1.31, 34.2 -1.28, 80.16 -1.89 M76.2 3.38 C79.52 29.12, 82.46 62.2, 83.72 80.08 M79.32 1.99 C82.86 16.72, 81.03 36.86, 79.65 79.88 M80.18 80.02 C65.34 79.72, 44.81 80.66, -3.28 83.42 M78.13 79.68 C62.15 80.75, 43.52 80.77, -1.77 78.7 M-2.76 80.48 C2.15 56.41, -1.48 31.69, -1.32 0.47 M-1.21 78.93 C-0.19 51.44, 2.64 21.45, 0.46 -1.29" stroke="#000000" stroke-width="1" fill="none"></path></g><g transform="translate(758.5 303.5) rotate(0 29.5 12.5)"><text x="29.5" y="18" font-family="Virgil, Segoe UI Emoji" font-size="20px" fill="#000000" text-anchor="middle" style="white-space: pre;" direction="ltr">k3: D</text></g><g stroke-linecap="round" transform="translate(748 576) rotate(0 40 40)"><path d="M-1.38 2.62 C21.65 2.29, 39.09 -1.94, 76.49 -2.69 M-1.78 -0.43 C28.66 -0.82, 56.97 -2.31, 81.34 0.54 M79.08 -0.23 C80.51 31.72, 82.2 56.53, 76.85 82.72 M81.77 -0.97 C79.4 24.94, 79.11 46.83, 78.5 78.71 M83.33 78.88 C52.59 79.83, 20.34 83.43, -2.78 76.04 M80.58 81.6 C60.67 81.37, 38.79 78.44, -0.4 81.56 M3.4 78.8 C0.88 52.38, -0.22 32.32, 2.18 -2.24 M-1.08 79.8 C2.71 50.68, 1.43 23.7, 0.17 1.75" stroke="#000000" stroke-width="1" fill="none"></path></g><g transform="translate(761.5 603.5) rotate(0 26.5 12.5)"><text x="26.5" y="18" font-family="Virgil, Segoe UI Emoji" font-size="20px" fill="#000000" text-anchor="middle" style="white-space: pre;" direction="ltr">K5: I</text></g><g stroke-linecap="round" transform="translate(748 476) rotate(0 40 40)"><path d="M-3.51 -2.69 C31.33 -0.52, 59.3 -2.88, 79.14 0.51 M1.34 0.54 C23.45 -0.39, 46.48 1.05, 79.88 1.01 M76.85 2.72 C81.23 29.64, 85.47 65.53, 78.05 79.88 M78.5 -1.29 C80.76 29.97, 79.73 61.42, 79.44 80.39 M77.22 76.04 C54.22 77.62, 32.08 82.53, 3.21 80.79 M79.6 81.56 C49.51 77.58, 19.21 80.66, -0.6 79.89 M2.18 77.76 C2.28 60.66, -1.61 43.99, -0.39 3.48 M0.17 81.75 C0.68 62.51, -0.82 47.09, -0.39 0.24" stroke="#000000" stroke-width="1" fill="none"></path></g><g transform="translate(758 503.5) rotate(0 30 12.5)"><text x="30" y="18" font-family="Virgil, Segoe UI Emoji" font-size="20px" fill="#000000" text-anchor="middle" style="white-space: pre;" direction="ltr">K4: D</text></g><g stroke-linecap="round" transform="translate(748 676) rotate(0 40 40)"><path d="M2.2 -1.19 C21.71 -2.48, 40.45 1.59, 79.2 0.33 M1.06 -1.9 C18.13 -0.89, 32.76 0.58, 81.75 1.86 M79.74 -1.35 C82.72 27.71, 76.79 48.2, 82.94 79.29 M81.05 0.09 C78.81 25.2, 78.24 47.46, 79.91 78.36 M77.86 76.26 C48.53 79.58, 21.54 79.2, 3.26 76.46 M80.02 78.62 C61.45 82.95, 41.83 81.14, -1.77 79.34 M1.75 77.58 C-3.02 52.89, -1.27 33.6, -3.63 0.92 M1.04 79.26 C-0.58 61.76, -0.53 42.59, 1.79 -0.23" stroke="#000000" stroke-width="1" fill="none"></path></g><g transform="translate(763.5 703.5) rotate(0 24.5 12.5)"><text x="24.5" y="18" font-family="Virgil, Segoe UI Emoji" font-size="20px" fill="#000000" text-anchor="middle" style="white-space: pre;" direction="ltr">K6: I</text></g><g transform="translate(710 13) rotate(0 58 12.5)"><text x="0" y="18" font-family="Virgil, Segoe UI Emoji" font-size="20px" fill="#000000" text-anchor="start" style="white-space: pre;" direction="ltr">Downstream</text></g><g stroke-linecap="round" transform="translate(750 873) rotate(0 40 40)"><path d="M-3.84 -2.26 C24.58 4.59, 44.15 3.13, 79.24 -2.87 M-0.35 1.17 C27.61 -1.96, 52.08 -1.39, 79.38 1.99 M77.04 -3.47 C82 20.46, 78.72 39.83, 80.57 80.49 M81.01 0.42 C82.77 23.18, 82.16 48.46, 81.68 79.9 M76.41 81.7 C58.36 81.45, 38.56 77.48, 0.73 78.44 M80.2 78.33 C53.62 78.46, 24.73 78.86, -0.46 80.38 M3.88 82.75 C-0.16 62.68, -0.34 46.45, -2.54 1.14 M0.71 78.92 C1.6 63.87, 2.17 48.82, 1.35 1.65" stroke="#000000" stroke-width="1" fill="none"></path></g><g transform="translate(769 900.5) rotate(0 21 12.5)"><text x="21" y="18" font-family="Virgil, Segoe UI Emoji" font-size="20px" fill="#000000" text-anchor="middle" style="white-space: pre;" direction="ltr">k1: R</text></g><g stroke-linecap="round" transform="translate(750 973) rotate(0 40 40)"><path d="M2.02 3.27 C16.44 2.71, 34.06 -1.97, 81.15 -0.1 M1.31 -1.95 C23.54 -2.32, 47.51 1.06, 78.76 1.63 M80.69 1.43 C76.23 24.41, 79.39 45.73, 80.08 83.21 M81.48 -0.98 C81.68 25.71, 82.48 51.06, 78.81 79.88 M77.58 80.29 C47.21 77, 21.15 79.12, 1.5 81.94 M80.62 79.63 C60.57 78.69, 43.24 79.05, -1.5 80.03 M-0.14 80.7 C-1.87 53.52, -4.09 23.21, -3.9 -3.78 M0.08 80.08 C0.09 61.86, 0.79 42.91, -0.59 -1.86" stroke="#000000" stroke-width="1" fill="none"></path></g><g transform="translate(763.5 1000.5) rotate(0 26.5 12.5)"><text x="26.5" y="18" font-family="Virgil, Segoe UI Emoji" font-size="20px" fill="#000000" text-anchor="middle" style="white-space: pre;" direction="ltr">k2: R</text></g><g stroke-linecap="round" transform="translate(10 70) rotate(0 40 40)"><path d="M2.06 3.59 C19.23 0.39, 28.77 -3.22, 79.36 -0.69 M-0.56 0.62 C17.33 -0.32, 33.64 0.03, 78.49 -1.51 M78.52 2.54 C76.86 31.23, 82.57 60.58, 80.27 76.47 M78.07 0.81 C82.18 26.77, 80.31 52.05, 80.62 79.86 M83.25 80.21 C47.78 81.08, 14.08 81.13, 3.9 80.14 M80.8 79.9 C61.32 78.79, 40.42 80.96, -0.72 81.43 M-1.4 78.68 C-2.4 60.95, -3.6 38.94, 2.76 -1.59 M1.85 81.18 C0.86 59.99, -0.65 35.82, 0.11 1.44" stroke="#000000" stroke-width="1" fill="none"></path></g><g transform="translate(36 97.5) rotate(0 14 12.5)"><text x="14" y="18" font-family="Virgil, Segoe UI Emoji" font-size="20px" fill="#000000" text-anchor="middle" style="white-space: pre;" direction="ltr">K2</text></g><g stroke-linecap="round" transform="translate(110 70) rotate(0 40 40)"><path d="M3.12 0.56 C21.44 -4.48, 49.1 -2.13, 76.88 1.44 M-0.43 0.68 C27.12 0.53, 56.48 -2.01, 81.63 -1.03 M77.68 0.69 C82.8 20.8, 79.68 39.04, 81.18 82.45 M81.2 0.42 C77.78 21.09, 79.08 43.35, 81.91 79.25 M79.4 81.21 C53.97 81.34, 37.17 80.23, -1.91 81.17 M81.5 79.32 C59.42 81.41, 36.57 81.35, -0.64 81.12 M-1.5 82.39 C-2.14 64.75, 3.32 44.27, -1.39 -0.69 M0.59 81.22 C-2.4 53.75, -1.37 32.39, -0.75 0.69" stroke="#000000" stroke-width="1" fill="none"></path></g><g transform="translate(136 97.5) rotate(0 14 12.5)"><text x="14" y="18" font-family="Virgil, Segoe UI Emoji" font-size="20px" fill="#000000" text-anchor="middle" style="white-space: pre;" direction="ltr">K3</text></g><g transform="translate(23 13) rotate(0 61.5 12.5)"><text x="0" y="18" font-family="Virgil, Segoe UI Emoji" font-size="20px" fill="#000000" text-anchor="start" style="white-space: pre;" direction="ltr">In database</text></g><g stroke-linecap="round" transform="translate(10 173) rotate(0 40 40)"><path d="M0.37 -0.02 C30.39 -0.87, 64.27 -0.51, 76.19 1.72 M-1.97 1.29 C18.3 -2.4, 32.74 -2.84, 80.76 1.96 M79.85 -0.55 C77.52 20.2, 81.5 30.68, 82.85 80.78 M78.94 1.2 C80.4 19.13, 81.25 35.5, 81.71 78.7 M77.17 78.53 C53.76 82.05, 27.61 79.08, 2.85 83.74 M78.92 78.67 C56.72 81.02, 36.04 79.59, 0.71 78.46 M-1.92 78.97 C0.37 58.82, 4.61 39.32, 0.75 3.73 M-0.19 79.32 C1.48 59.65, 1.13 33.99, -0.27 0.11" stroke="#000000" stroke-width="1" fill="none"></path></g><g transform="translate(37.5 200.5) rotate(0 12.5 12.5)"><text x="12.5" y="18" font-family="Virgil, Segoe UI Emoji" font-size="20px" fill="#000000" text-anchor="middle" style="white-space: pre;" direction="ltr">K4</text></g></svg>