<svg xmlns="http://www.w3.org/2000/svg" xmlns:xlink="http://www.w3.org/1999/xlink" viewBox="0 0 600 130.93"><defs><style>.cls-1{fill:#fff;}.cls-2{fill:url(#linear-gradient);}.cls-3{fill:url(#linear-gradient-2);}.cls-4{fill:url(#linear-gradient-3);}.cls-5{fill:url(#linear-gradient-4);}.cls-6{fill:url(#linear-gradient-5);}</style><linearGradient id="linear-gradient" x1="19.74" y1="19.73" x2="114.03" y2="114.02" gradientUnits="userSpaceOnUse"><stop offset="0" stop-color="#91d443"/><stop offset="1" stop-color="#48bfe0"/></linearGradient><linearGradient id="linear-gradient-2" x1="43.19" y1="-3.72" x2="137.48" y2="90.57" xlink:href="#linear-gradient"/><linearGradient id="linear-gradient-3" x1="66.56" y1="-27.09" x2="160.85" y2="67.2" xlink:href="#linear-gradient"/><linearGradient id="linear-gradient-4" x1="-3.72" y1="43.18" x2="90.57" y2="137.47" xlink:href="#linear-gradient"/><linearGradient id="linear-gradient-5" x1="-27.09" y1="66.55" x2="67.2" y2="160.84" xlink:href="#linear-gradient"/></defs><title>color_white</title><g id="Layer_1" data-name="Layer 1"><path class="cls-1" d="M174.56,92.39Q168,85.74,168,74.87t6.74-17.34A22.4,22.4,0,0,1,190.81,51q9.33,0,15,7.88V33.36h9.81v65h-9.81v-7Q200.4,99.05,190,99.05A21,21,0,0,1,174.56,92.39Zm3.24-17.13a14.6,14.6,0,0,0,4.29,10.91,13.93,13.93,0,0,0,10.08,4.2A13,13,0,0,0,202,86.13a15.2,15.2,0,0,0,4-10.9,16,16,0,0,0-4-11.13,12.82,12.82,0,0,0-9.9-4.47A13.35,13.35,0,0,0,182,64.1,15.66,15.66,0,0,0,177.8,75.27Z"/><path class="cls-1" d="M273.19,79.34H236.66a10.61,10.61,0,0,0,4.64,8.19,16.29,16.29,0,0,0,9.81,3.11q8.75,0,13.31-5.52L270,91.26q-7.53,7.8-19.62,7.8a23.35,23.35,0,0,1-16.69-6.53Q226.85,86,226.85,75t7-17.48A23.52,23.52,0,0,1,250.37,51a23.92,23.92,0,0,1,16.16,5.74q6.65,5.74,6.66,15.81Zm-36.53-7.71h26.72q0-5.87-3.68-9a13.46,13.46,0,0,0-9.07-3.15A15.52,15.52,0,0,0,241,62.74,10.6,10.6,0,0,0,236.66,71.63Z"/><path class="cls-1" d="M308.93,51a22.16,22.16,0,0,1,16,6.48q6.65,6.48,6.66,17.26T325,92.31a20.93,20.93,0,0,1-15.42,6.75q-8.8,0-15.81-7.71v7H284v-65h9.81V59.9Q299.56,51.05,308.93,51ZM293.6,75.14a15.21,15.21,0,0,0,4,10.91,13,13,0,0,0,9.81,4.25,13.93,13.93,0,0,0,10.07-4.21,14.59,14.59,0,0,0,4.29-10.91,15.51,15.51,0,0,0-4.2-11.12,13.42,13.42,0,0,0-10.08-4.42,12.87,12.87,0,0,0-9.9,4.42A15.84,15.84,0,0,0,293.6,75.14Z"/><path class="cls-1" d="M386.19,79.34H349.66a10.61,10.61,0,0,0,4.64,8.19,16.29,16.29,0,0,0,9.81,3.11q8.76,0,13.32-5.52l5.6,6.13q-7.53,7.8-19.62,7.8a23.35,23.35,0,0,1-16.69-6.53Q339.85,86,339.85,75t7-17.48A23.52,23.52,0,0,1,363.37,51a23.92,23.92,0,0,1,16.16,5.74q6.66,5.74,6.66,15.81Zm-36.53-7.71h26.72q0-5.87-3.68-9a13.45,13.45,0,0,0-9.07-3.15A15.51,15.51,0,0,0,354,62.74,10.6,10.6,0,0,0,349.66,71.63Z"/><path class="cls-1" d="M395.48,60.33V51.93h36.44v8.85L405.72,89.85h27.59v8.5H393.72V88.8l25.49-28.47Z"/><path class="cls-1" d="M445,42.47a6.14,6.14,0,1,1,4.38,1.84A6,6,0,0,1,445,42.47Zm9.2,55.89h-9.81V51.75h9.81Z"/><path class="cls-1" d="M500.94,77V51.75h9.81v46.6h-9.81v-8.5a17.67,17.67,0,0,1-15.5,9.2q-7.88,0-12.75-4.82t-4.86-13.93V51.75h9.81V77.33q0,12.87,10.69,12.88a12.83,12.83,0,0,0,8.85-3.37Q500.94,83.46,500.94,77Z"/><path class="cls-1" d="M534.75,73.12V98.35h-9.81V51.75h9.81v8.5a15.55,15.55,0,0,1,6.35-6.74A18,18,0,0,1,550.25,51q11,0,15,9.11,6.92-9.11,17.26-9.11,7.88,0,12.75,4.82t4.86,13.93V98.35h-9.81V72.77q0-12.88-10.69-12.88a13,13,0,0,0-8.72,3.2q-3.72,3.2-3.9,9.33V98.35h-9.81V72.77q0-6.66-2.36-9.77t-7.45-3.11a12.84,12.84,0,0,0-8.85,3.37Q534.75,66.64,534.75,73.12Z"/><path class="cls-2" d="M93.79,114.29a16.65,16.65,0,0,0,16.63,16.63h20.53V110.39a16.65,16.65,0,0,0-16.63-16.63h-3.91A26.39,26.39,0,0,1,84,67.4V63.51A16.65,16.65,0,0,0,67.41,46.89h-3.9A26.39,26.39,0,0,1,37.16,20.52h0V16.62A16.65,16.65,0,0,0,20.53,0H0V20.52A16.65,16.65,0,0,0,16.63,37.15h3.91A26.39,26.39,0,0,1,46.9,63.51V67.4A16.65,16.65,0,0,0,63.53,84h3.9a26.39,26.39,0,0,1,26.36,26.36h0Z"/><path class="cls-3" d="M130.94,63.51a16.65,16.65,0,0,0-16.63-16.63h-3.91A26.39,26.39,0,0,1,84,20.52V16.62A16.65,16.65,0,0,0,67.41,0H46.9V20.75A16.64,16.64,0,0,0,63.52,37.15h3.91A26.39,26.39,0,0,1,93.79,63.51h0V67.4A16.65,16.65,0,0,0,110.36,84h20.58Z"/><path class="cls-4" d="M130.94,16.49A16.63,16.63,0,0,0,115,0H93.47V20.7a16.64,16.64,0,0,0,16.62,16.44h20.85Z"/><path class="cls-5" d="M0,67.44A16.65,16.65,0,0,0,16.64,84.06h3.91a26.39,26.39,0,0,1,26.36,26.36v3.89a16.65,16.65,0,0,0,16.63,16.63H84V110.19A16.64,16.64,0,0,0,67.43,93.8H63.53A26.39,26.39,0,0,1,37.16,67.44h0V63.54A16.65,16.65,0,0,0,20.59,46.91H0Z"/><path class="cls-6" d="M0,114.45a16.63,16.63,0,0,0,16,16.5H37.48V110.24A16.64,16.64,0,0,0,20.86,93.8H0Z"/></g></svg>